<svg width="486" height="221" viewBox="0 0 486 221" fill="none" xmlns="http://www.w3.org/2000/svg">
<path d="M0.820703 217V185.857L52.0211 107.209C55.8919 101.403 59.4988 95.7729 62.8418 90.3186C66.3607 84.8643 69.1759 79.3219 71.2872 73.6917C73.5745 68.0614 74.7182 62.1672 74.7182 56.009C74.7182 49.8509 73.4866 45.2763 71.0233 42.2852C68.5601 39.2941 65.2171 37.7986 60.9944 37.7986C56.2438 37.7986 52.5489 39.1182 49.9097 41.7574C47.2706 44.3966 45.4231 47.9155 44.3674 52.3142C43.4877 56.7128 43.0478 61.6393 43.0478 67.0937V77.6505H0.292864V66.3019C0.292864 53.6338 2.31625 42.3732 6.36302 32.5202C10.4098 22.4913 16.8318 14.6616 25.6291 9.03135C34.4265 3.22512 45.951 0.322009 60.2026 0.322009C79.3808 0.322009 93.8084 5.33648 103.485 15.3654C113.338 25.2184 118.265 39.0302 118.265 56.8008C118.265 65.4222 116.857 73.4277 114.042 80.8175C111.403 88.2072 107.796 95.421 103.222 102.459C98.8228 109.321 94.0723 116.535 88.9699 124.1L49.9097 182.427H112.459V217H0.820703ZM198.146 220.959C185.302 220.959 174.569 218.408 165.948 213.305C157.326 208.027 150.816 200.813 146.418 191.664C142.019 182.515 139.82 171.87 139.82 159.729V62.8709C139.82 50.3788 141.843 39.4701 145.89 30.1449C150.113 20.6438 156.535 13.2541 165.156 7.97567C173.777 2.69729 184.774 0.0580931 198.146 0.0580931C211.518 0.0580931 222.427 2.69729 230.872 7.97567C239.493 13.2541 245.827 20.6438 249.874 30.1449C254.097 39.4701 256.208 50.3788 256.208 62.8709V159.729C256.208 171.694 254.009 182.339 249.61 191.664C245.212 200.813 238.702 208.027 230.08 213.305C221.459 218.408 210.814 220.959 198.146 220.959ZM198.146 181.635C202.369 181.635 205.36 180.315 207.119 177.676C209.055 174.861 210.198 171.694 210.55 168.175C211.078 164.48 211.342 161.313 211.342 158.674V63.9266C211.342 60.9355 211.166 57.5926 210.814 53.8977C210.462 50.0269 209.319 46.6839 207.383 43.8687C205.624 40.8777 202.545 39.3821 198.146 39.3821C193.747 39.3821 190.58 40.8777 188.645 43.8687C186.885 46.6839 185.83 50.0269 185.478 53.8977C185.126 57.5926 184.95 60.9355 184.95 63.9266V158.674C184.95 161.313 185.214 164.48 185.742 168.175C186.27 171.694 187.413 174.861 189.173 177.676C191.108 180.315 194.099 181.635 198.146 181.635ZM281.493 217V185.857L332.693 107.209C336.564 101.403 340.171 95.7729 343.514 90.3186C347.033 84.8643 349.848 79.3219 351.96 73.6917C354.247 68.0614 355.39 62.1672 355.39 56.009C355.39 49.8509 354.159 45.2763 351.696 42.2852C349.232 39.2941 345.889 37.7986 341.667 37.7986C336.916 37.7986 333.221 39.1182 330.582 41.7574C327.943 44.3966 326.095 47.9155 325.04 52.3142C324.16 56.7128 323.72 61.6393 323.72 67.0937V77.6505H280.965V66.3019C280.965 53.6338 282.989 42.3732 287.035 32.5202C291.082 22.4913 297.504 14.6616 306.301 9.03135C315.099 3.22512 326.623 0.322009 340.875 0.322009C360.053 0.322009 374.481 5.33648 384.158 15.3654C394.011 25.2184 398.937 39.0302 398.937 56.8008C398.937 65.4222 397.53 73.4277 394.715 80.8175C392.075 88.2072 388.468 95.421 383.894 102.459C379.495 109.321 374.745 116.535 369.642 124.1L330.582 182.427H393.131V217H281.493ZM441.342 217V46.7719C439.406 47.8275 437.207 48.8832 434.744 49.9389C432.28 50.9946 429.641 52.1382 426.826 53.3699C424.187 54.4255 421.548 55.4812 418.908 56.5369C416.445 57.5926 414.158 58.6482 412.047 59.7039V26.9779C413.982 25.9222 416.709 24.5146 420.228 22.7552C423.747 20.8198 427.53 18.7084 431.577 16.4211C435.623 14.1338 439.406 11.8465 442.925 9.5592C446.444 7.09595 449.083 4.98459 450.843 3.22512H485.416V217H441.342Z" fill="url(#paint0_linear_88_93)"/>
<defs>
<linearGradient id="paint0_linear_88_93" x1="250" y1="-61" x2="250" y2="234" gradientUnits="userSpaceOnUse">
<stop stop-color="#F4F4F4" stop-opacity="0.38"/>
<stop offset="0.755691" stop-color="#4146AE" stop-opacity="0.0928376"/>
<stop offset="1" stop-color="#363B9D" stop-opacity="0"/>
</linearGradient>
</defs>
</svg>
