<svg width="24" height="28" viewBox="0 0 24 28" fill="none" xmlns="http://www.w3.org/2000/svg">
<path d="M1.77464 0.172165C1.77464 0.484308 1.92533 1.36154 2.04911 1.74902C2.44736 3.04603 3.36764 4.25693 4.51934 4.99961L5.02523 5.3279H4.28792C3.57215 5.3279 3.53986 5.32252 3.26539 5.17183C1.97376 4.45605 0.326942 5.24717 0.0524722 6.72178C-0.0174908 7.0985 -0.0174908 11.2425 0.0524722 12.082C0.176253 13.5405 0.542213 14.9828 1.12344 16.339C1.29028 16.7265 1.87151 17.8351 2.01682 18.0504C2.05987 18.1096 2.09754 18.1796 2.09754 18.2011C2.09754 18.228 1.83384 18.2441 1.50555 18.2441H0.913555V19.5627V20.8812H1.86075H2.80794L2.77027 21.0319C2.33434 22.7702 2.10831 25.2889 2.32358 25.9777C2.52809 26.6182 3.10394 27.2156 3.72822 27.4254C4.13724 27.5654 4.83148 27.5546 5.22973 27.3985C5.81097 27.1725 6.28456 26.7043 6.52136 26.1123C6.63976 25.8109 6.64514 25.7625 6.66128 23.3407L6.67743 20.8812H7.10797H7.53313V21.7692V22.6572H8.87857H10.224V19.5627V16.4682H8.87857H7.53313V17.3562V18.2441H7.10259H6.67205V17.9051V17.5607L6.23074 17.2108C5.10595 16.3229 4.18567 15.1173 3.70669 13.9226C3.50757 13.4382 3.28153 12.5879 3.20081 12.0443C3.14699 11.7053 3.12008 11.0972 3.12008 10.3383V9.1651L3.33535 9.01979L3.55062 8.87987H6.2146H8.87857V8.6646V8.44933L10.886 8.43856L12.888 8.42242V7.10388V5.78535L10.886 5.76921L8.87857 5.75844V5.54317V5.3279H8.03364H7.18332L6.25765 4.90274C5.26741 4.45067 4.75076 4.13315 4.28254 3.70799C3.95425 3.41199 3.54524 2.87381 3.29768 2.42175C2.95863 1.80822 2.68954 0.866413 2.68954 0.301327V-5.14984e-05H2.23209H1.77464V0.172165ZM2.77565 5.9199C3.27615 6.13517 3.59368 6.6841 3.53448 7.24919C3.41608 8.39013 1.99529 8.84758 1.23646 7.98649C0.999664 7.71202 0.913555 7.48599 0.913555 7.12003C0.918937 6.11902 1.8446 5.52164 2.77565 5.9199ZM8.00673 7.11465L7.99058 7.99187L6.12311 8.00802C5.08981 8.0134 4.25025 8.0134 4.25025 7.99726C4.25025 7.98649 4.28792 7.87348 4.33636 7.74431C4.444 7.44294 4.444 6.77021 4.33636 6.46884L4.25563 6.2428H6.13925H8.01749L8.00673 7.11465ZM12 7.10388V7.53443H10.4393H8.87857V7.10388V6.67334H10.4393H12V7.10388ZM1.31719 9.11666C1.49479 9.19739 1.76926 9.27812 1.92533 9.29426L2.20518 9.32656V10.1123C2.21056 11.6676 2.35049 12.7117 2.68954 13.7342C3.1739 15.1819 4.09956 16.565 5.25126 17.5553L5.75715 17.9912L5.74638 21.8768L5.73024 25.7625L5.56879 26.0262C5.1221 26.742 4.10494 26.855 3.50219 26.2576C3.15775 25.9132 3.09855 25.6441 3.13623 24.6754C3.15237 24.2341 3.20619 23.5882 3.25462 23.2492C3.33535 22.6895 3.63673 21.1772 3.77127 20.6444L3.82509 20.4399L3.97578 20.5798L4.12109 20.7198L4.42247 20.4614C4.5893 20.3215 4.72385 20.1816 4.72923 20.1547C4.72923 20.1224 4.50858 19.8371 4.23411 19.5196C3.95964 19.1967 3.56677 18.707 3.35688 18.4271C2.09216 16.7373 1.26337 14.676 0.994282 12.5126C0.908174 11.8345 0.875883 8.90678 0.956609 8.94445C0.978137 8.95521 1.13959 9.03594 1.31719 9.11666ZM9.30912 17.7867V18.2441H8.87857H8.44803V17.7867V17.3292H8.87857H9.30912V17.7867ZM2.93172 19.3474C3.08779 19.5465 3.09855 19.5788 3.0555 19.7887L3.00706 20.0201H2.38816H1.77464V19.5627V19.0998L2.26438 19.116L2.75412 19.1321L2.93172 19.3474ZM7.53313 19.5627V20.0201H7.10259H6.67205V19.5627V19.1052H7.10259H7.53313V19.5627ZM9.30912 19.5627V20.0201H8.87857H8.44803V19.5627V19.1052H8.87857H9.30912V19.5627ZM9.30912 21.3387V21.7961H8.87857H8.44803V21.3387V20.8812H8.87857H9.30912V21.3387Z" fill="#2408E8"/>
<path d="M1.77539 7.10388V7.53442H2.23284H2.69029V7.10388V6.67334H2.23284H1.77539V7.10388Z" fill="#2408E8"/>
<path d="M4.01814 24.896C3.99661 24.9175 3.98047 25.1274 3.98047 25.3588V25.7786H4.43792H4.90075L4.88461 25.3319L4.86846 24.8906L4.46483 24.8744C4.23879 24.869 4.03967 24.8744 4.01814 24.896Z" fill="#2408E8"/>
<path d="M21.1484 4.99423C20.5833 5.18259 20.2443 5.43554 19.9375 5.89299C19.2487 6.93167 19.55 8.30402 20.6102 8.9875L20.8793 9.15972V10.3383C20.8793 11.0972 20.8524 11.7053 20.7986 12.0443C20.7179 12.5879 20.4918 13.4382 20.2927 13.9226C19.8191 15.112 18.9204 16.2852 17.7902 17.1893L17.3274 17.566V17.9051V18.2441H16.8968H16.4663V17.3562V16.4682H15.1208H13.7754V19.5627V22.6572H15.1208H16.4663V21.7692V20.8812H16.8914H17.322L17.3381 23.3407C17.3543 25.7625 17.3596 25.8109 17.478 26.1123C17.7148 26.7043 18.1884 27.1725 18.7697 27.3985C19.1679 27.5546 19.8622 27.5654 20.2712 27.4254C20.8955 27.2156 21.4713 26.6182 21.6758 25.9777C21.8911 25.2889 21.6651 22.7702 21.2291 21.0319L21.1915 20.8812H22.1387H23.0859V19.5627V18.2441H22.4939C22.171 18.2441 21.9019 18.228 21.9019 18.2011C21.9019 18.1796 21.9342 18.115 21.9772 18.0558C22.1333 17.8244 22.7522 16.635 22.9136 16.2475C23.5002 14.8321 23.8232 13.5297 23.9469 12.082C24.0169 11.2425 24.0169 7.0985 23.9469 6.72178C23.8178 6.01677 23.3442 5.41401 22.6768 5.10187C22.2194 4.8866 21.6005 4.84354 21.1484 4.99423ZM22.3055 5.89299C22.7629 6.07597 23.0859 6.58185 23.0859 7.12003C23.0859 7.48599 22.9997 7.71202 22.7629 7.9865C22.0041 8.84758 20.5833 8.39013 20.4649 7.24919C20.3627 6.24818 21.3637 5.51088 22.3055 5.89299ZM23.0859 10.4029C23.0859 11.9959 23.0213 12.7332 22.7899 13.7504C22.327 15.7847 21.4552 17.5068 20.0236 19.2075C19.7384 19.5465 19.4424 19.8963 19.3617 19.9932L19.2164 20.1654L19.55 20.4399L19.8783 20.7198L20.0236 20.5798L20.1743 20.4399L20.2281 20.6444C20.3627 21.1772 20.6641 22.6895 20.7448 23.2492C20.7932 23.5882 20.847 24.2341 20.8632 24.6754C20.9009 25.6441 20.8417 25.9132 20.4972 26.2576C19.8945 26.855 18.8773 26.742 18.4306 26.0262L18.2692 25.7625L18.253 21.8768L18.2423 17.9912L18.7481 17.5553C19.62 16.8018 20.4488 15.7093 20.9385 14.6653C21.5574 13.336 21.7888 12.0982 21.7942 10.1123V9.32656L22.0902 9.29427C22.2624 9.27812 22.5154 9.19739 22.693 9.1059C22.8652 9.01441 23.0213 8.94445 23.0482 8.93907C23.0697 8.93369 23.0859 9.59564 23.0859 10.4029ZM15.5514 17.7867V18.2441H15.1208H14.6903V17.7867V17.3292H15.1208H15.5514V17.7867ZM15.5514 19.5627V20.0201H15.1208H14.6903V19.5627V19.1052H15.1208H15.5514V19.5627ZM17.3274 19.5627V20.0201H16.8968H16.4663V19.5627V19.1052H16.8968H17.3274V19.5627ZM22.2248 19.5627V20.0201H21.6059H20.987L20.9547 19.8049C20.9062 19.525 20.9009 19.5573 21.0892 19.3151L21.2614 19.1052H21.7404H22.2248V19.5627ZM15.5514 21.3387V21.7961H15.1208H14.6903V21.3387V20.8812H15.1208H15.5514V21.3387Z" fill="#2408E8"/>
<path d="M21.3105 7.10388V7.53442H21.768H22.2254V7.10388V6.67334H21.768H21.3105V7.10388Z" fill="#2408E8"/>
<path d="M19.1412 24.896C19.1197 24.9175 19.1035 25.1274 19.1035 25.3588V25.7786H19.561H20.0238L20.0077 25.3319L19.9915 24.8906L19.5879 24.8744C19.3618 24.869 19.1627 24.8744 19.1412 24.896Z" fill="#2408E8"/>
</svg>
