<svg width="25" height="25" viewBox="0 0 25 25" fill="none" xmlns="http://www.w3.org/2000/svg">
<path d="M21.0554 0.0721421C20.2279 0.294755 19.5261 1.02067 19.3519 1.83853C19.2648 2.23536 19.3229 2.86448 19.4729 3.23712L19.5987 3.54684L18.4615 4.68894L17.3242 5.8262L17.7452 6.25207L18.1711 6.6731L19.3084 5.53583L20.4505 4.39857L20.7602 4.52924C21.0457 4.65022 21.1328 4.6599 21.6555 4.66474C22.2265 4.66474 22.2411 4.6599 22.6137 4.48568C23.8671 3.8856 24.3607 2.43377 23.7219 1.2336C23.5574 0.919039 23.0783 0.439937 22.7637 0.275397C22.2556 0.00439072 21.5974 -0.07304 21.0554 0.0721421Z" fill="#2408E8"/>
<path d="M21.0554 0.0721421C20.2279 0.294755 19.5261 1.02067 19.3519 1.83853C19.2648 2.23536 19.3229 2.86448 19.4729 3.23712L19.5987 3.54684L18.4615 4.68894L17.3242 5.8262L17.7452 6.25207L18.1711 6.6731L19.3084 5.53583L20.4505 4.39857L20.7602 4.52924C21.0457 4.65022 21.1328 4.6599 21.6555 4.66474C22.2265 4.66474 22.2411 4.6599 22.6137 4.48568C23.8671 3.8856 24.3607 2.43377 23.7219 1.2336C23.5574 0.919039 23.0783 0.439937 22.7637 0.275397C22.2556 0.00439072 21.5974 -0.07304 21.0554 0.0721421Z" stroke="black"/>
<path d="M15.9879 3.15481C15.4507 3.29515 14.9958 3.69682 14.8022 4.20012C14.6571 4.57276 14.6571 5.20188 14.8022 5.7197C15.0055 6.46497 15.412 7.12796 16.0895 7.82968C16.9219 8.69109 17.7494 9.13632 18.7899 9.2815C20.145 9.47024 21.079 8.47332 20.8612 7.06989C20.8031 6.68274 20.6434 6.22783 20.5369 6.11653C20.3434 5.92295 20.0046 5.99554 19.9175 6.25203C19.8788 6.35366 19.8933 6.46497 19.9756 6.71178C20.2127 7.44253 20.1643 7.91195 19.8207 8.25071C19.4723 8.59914 18.9496 8.63302 18.185 8.35233C17.28 8.02325 16.2105 7.05537 15.7604 6.16492C15.2862 5.21156 15.3443 4.35982 15.9056 4.0259C16.1089 3.90492 16.1815 3.8904 16.5251 3.89524C16.7961 3.89524 16.9993 3.92912 17.2026 4.00171C17.3575 4.05978 17.551 4.10817 17.6236 4.10817C17.943 4.10817 18.0834 3.63875 17.8269 3.4355C17.4978 3.17901 16.496 3.02899 15.9879 3.15481Z" fill="#2408E8"/>
<path d="M15.9879 3.15481C15.4507 3.29515 14.9958 3.69682 14.8022 4.20012C14.6571 4.57276 14.6571 5.20188 14.8022 5.7197C15.0055 6.46497 15.412 7.12796 16.0895 7.82968C16.9219 8.69109 17.7494 9.13632 18.7899 9.2815C20.145 9.47024 21.079 8.47332 20.8612 7.06989C20.8031 6.68274 20.6434 6.22783 20.5369 6.11653C20.3434 5.92295 20.0046 5.99554 19.9175 6.25203C19.8788 6.35366 19.8933 6.46497 19.9756 6.71178C20.2127 7.44253 20.1643 7.91195 19.8207 8.25071C19.4723 8.59914 18.9496 8.63302 18.185 8.35233C17.28 8.02325 16.2105 7.05537 15.7604 6.16492C15.2862 5.21156 15.3443 4.35982 15.9056 4.0259C16.1089 3.90492 16.1815 3.8904 16.5251 3.89524C16.7961 3.89524 16.9993 3.92912 17.2026 4.00171C17.3575 4.05978 17.551 4.10817 17.6236 4.10817C17.943 4.10817 18.0834 3.63875 17.8269 3.4355C17.4978 3.17901 16.496 3.02899 15.9879 3.15481Z" stroke="black"/>
<path d="M13.4516 5.35184C12.8999 5.98097 12.8805 6.97789 13.3983 8.06191C13.6742 8.63296 13.9404 9.0056 14.4388 9.51858C15.1744 10.2735 15.9439 10.7187 16.8488 10.9026C17.5506 11.0478 18.049 10.9752 18.5184 10.6607C18.8911 10.409 18.9588 10.1429 18.712 9.91541C18.5717 9.7799 18.3926 9.79442 18.1652 9.95896C17.8942 10.1574 17.6522 10.2203 17.2796 10.1961C16.5246 10.138 15.7745 9.73151 14.9954 8.95236C14.4582 8.41519 14.2598 8.12483 13.9839 7.47151C13.8387 7.13275 13.8194 7.03112 13.8194 6.64397C13.8145 6.22294 13.8194 6.19874 13.9984 5.91322C14.2017 5.57446 14.2162 5.47767 14.0759 5.29861C13.9984 5.20182 13.9355 5.17279 13.7903 5.17279C13.6403 5.17279 13.5774 5.20182 13.4516 5.35184Z" fill="#2408E8"/>
<path d="M13.4516 5.35184C12.8999 5.98097 12.8805 6.97789 13.3983 8.06191C13.6742 8.63296 13.9404 9.0056 14.4388 9.51858C15.1744 10.2735 15.9439 10.7187 16.8488 10.9026C17.5506 11.0478 18.049 10.9752 18.5184 10.6607C18.8911 10.409 18.9588 10.1429 18.712 9.91541C18.5717 9.7799 18.3926 9.79442 18.1652 9.95896C17.8942 10.1574 17.6522 10.2203 17.2796 10.1961C16.5246 10.138 15.7745 9.73151 14.9954 8.95236C14.4582 8.41519 14.2598 8.12483 13.9839 7.47151C13.8387 7.13275 13.8194 7.03112 13.8194 6.64397C13.8145 6.22294 13.8194 6.19874 13.9984 5.91322C14.2017 5.57446 14.2162 5.47767 14.0759 5.29861C13.9984 5.20182 13.9355 5.17279 13.7903 5.17279C13.6403 5.17279 13.5774 5.20182 13.4516 5.35184Z" stroke="black"/>
<path d="M11.8266 6.97308C11.12 7.73771 11.2314 9.04435 12.117 10.3703C12.4364 10.8446 13.1284 11.5705 13.5252 11.8367C14.6286 12.5771 15.8482 12.8142 16.6176 12.4368C17.1306 12.1851 17.2903 11.9093 17.0774 11.6383C16.9467 11.4737 16.6999 11.4689 16.487 11.6286C15.8046 12.1319 14.5657 11.7689 13.4333 10.7333C12.8913 10.2397 12.4412 9.53313 12.2428 8.86045C12.1557 8.57976 12.1412 8.4249 12.1557 8.14422C12.175 7.82482 12.1992 7.75222 12.3589 7.51993C12.509 7.307 12.538 7.22957 12.509 7.10858C12.4412 6.78918 12.0637 6.71659 11.8266 6.97308Z" fill="#2408E8"/>
<path d="M11.8266 6.97308C11.12 7.73771 11.2314 9.04435 12.117 10.3703C12.4364 10.8446 13.1284 11.5705 13.5252 11.8367C14.6286 12.5771 15.8482 12.8142 16.6176 12.4368C17.1306 12.1851 17.2903 11.9093 17.0774 11.6383C16.9467 11.4737 16.6999 11.4689 16.487 11.6286C15.8046 12.1319 14.5657 11.7689 13.4333 10.7333C12.8913 10.2397 12.4412 9.53313 12.2428 8.86045C12.1557 8.57976 12.1412 8.4249 12.1557 8.14422C12.175 7.82482 12.1992 7.75222 12.3589 7.51993C12.509 7.307 12.538 7.22957 12.509 7.10858C12.4412 6.78918 12.0637 6.71659 11.8266 6.97308Z" stroke="black"/>
<path d="M10.1934 8.6087C9.93206 8.83615 9.75784 9.28138 9.73364 9.77016C9.70945 10.2638 9.76752 10.5735 9.98045 11.1058C10.4499 12.2673 11.3742 13.2739 12.4582 13.8111C13.1503 14.1547 13.489 14.2418 14.1278 14.2418C14.6069 14.2466 14.6553 14.2369 14.9602 14.0869C15.3667 13.8885 15.5506 13.6852 15.5119 13.4771C15.4441 13.1384 15.1296 13.0658 14.7811 13.3126C14.5827 13.4529 14.5101 13.4723 14.1762 13.4868C13.5471 13.5159 12.826 13.2352 12.1388 12.6835C11.4758 12.156 11.108 11.6962 10.7886 11.0139C10.5612 10.5203 10.4789 10.167 10.5079 9.75564C10.5225 9.48463 10.5515 9.39752 10.7112 9.17007C10.9145 8.87487 10.9193 8.73937 10.7402 8.56031C10.5999 8.41996 10.387 8.43932 10.1934 8.6087Z" fill="#2408E8"/>
<path d="M10.1934 8.6087C9.93206 8.83615 9.75784 9.28138 9.73364 9.77016C9.70945 10.2638 9.76752 10.5735 9.98045 11.1058C10.4499 12.2673 11.3742 13.2739 12.4582 13.8111C13.1503 14.1547 13.489 14.2418 14.1278 14.2418C14.6069 14.2466 14.6553 14.2369 14.9602 14.0869C15.3667 13.8885 15.5506 13.6852 15.5119 13.4771C15.4441 13.1384 15.1296 13.0658 14.7811 13.3126C14.5827 13.4529 14.5101 13.4723 14.1762 13.4868C13.5471 13.5159 12.826 13.2352 12.1388 12.6835C11.4758 12.156 11.108 11.6962 10.7886 11.0139C10.5612 10.5203 10.4789 10.167 10.5079 9.75564C10.5225 9.48463 10.5515 9.39752 10.7112 9.17007C10.9145 8.87487 10.9193 8.73937 10.7402 8.56031C10.5999 8.41996 10.387 8.43932 10.1934 8.6087Z" stroke="black"/>
<path d="M8.5439 10.259C8.45195 10.3412 8.31161 10.53 8.23902 10.68C8.11319 10.9365 8.10352 10.9946 8.10352 11.5608C8.10352 12.0689 8.12287 12.2141 8.21966 12.4803C8.49067 13.2449 8.87298 13.8498 9.47307 14.4741C10.0925 15.1177 10.6732 15.4904 11.4669 15.7517C11.8202 15.8679 11.9557 15.8872 12.459 15.8872C12.9768 15.892 13.0639 15.8824 13.2575 15.7759C13.7656 15.5097 13.9302 15.3065 13.8334 15.0597C13.7221 14.7693 13.4946 14.7306 13.1559 14.9532C12.3816 15.4468 11.0604 14.9871 9.95701 13.845C9.22142 13.0852 8.82459 12.2286 8.85846 11.4737C8.87782 11.1252 8.89234 11.0623 9.04236 10.8494C9.24562 10.559 9.25529 10.38 9.07624 10.2203C8.89718 10.0702 8.74716 10.0799 8.5439 10.259Z" fill="#2408E8"/>
<path d="M8.5439 10.259C8.45195 10.3412 8.31161 10.53 8.23902 10.68C8.11319 10.9365 8.10352 10.9946 8.10352 11.5608C8.10352 12.0689 8.12287 12.2141 8.21966 12.4803C8.49067 13.2449 8.87298 13.8498 9.47307 14.4741C10.0925 15.1177 10.6732 15.4904 11.4669 15.7517C11.8202 15.8679 11.9557 15.8872 12.459 15.8872C12.9768 15.892 13.0639 15.8824 13.2575 15.7759C13.7656 15.5097 13.9302 15.3065 13.8334 15.0597C13.7221 14.7693 13.4946 14.7306 13.1559 14.9532C12.3816 15.4468 11.0604 14.9871 9.95701 13.845C9.22142 13.0852 8.82459 12.2286 8.85846 11.4737C8.87782 11.1252 8.89234 11.0623 9.04236 10.8494C9.24562 10.559 9.25529 10.38 9.07624 10.2203C8.89718 10.0702 8.74716 10.0799 8.5439 10.259Z" stroke="black"/>
<path d="M6.89795 11.9043C6.806 11.9866 6.6705 12.1705 6.60275 12.3109C6.20107 13.1626 6.47208 14.3918 7.3093 15.5291C7.58031 15.9017 8.29654 16.6083 8.62562 16.8309C8.99825 17.0874 9.62738 17.3584 10.092 17.4697C10.8663 17.6536 11.4518 17.581 11.9164 17.2422C12.26 16.9954 12.3036 16.8067 12.081 16.555C11.9455 16.4098 11.7858 16.4195 11.5147 16.5937C11.0163 16.9131 10.3872 16.8744 9.57898 16.4728C8.27234 15.8194 7.20283 14.3579 7.20283 13.2303C7.20283 12.8529 7.25123 12.6787 7.43028 12.4464C7.58999 12.2334 7.58515 11.9866 7.42061 11.856C7.24155 11.7156 7.09637 11.7301 6.89795 11.9043Z" fill="#2408E8"/>
<path d="M6.89795 11.9043C6.806 11.9866 6.6705 12.1705 6.60275 12.3109C6.20107 13.1626 6.47208 14.3918 7.3093 15.5291C7.58031 15.9017 8.29654 16.6083 8.62562 16.8309C8.99825 17.0874 9.62738 17.3584 10.092 17.4697C10.8663 17.6536 11.4518 17.581 11.9164 17.2422C12.26 16.9954 12.3036 16.8067 12.081 16.555C11.9455 16.4098 11.7858 16.4195 11.5147 16.5937C11.0163 16.9131 10.3872 16.8744 9.57898 16.4728C8.27234 15.8194 7.20283 14.3579 7.20283 13.2303C7.20283 12.8529 7.25123 12.6787 7.43028 12.4464C7.58999 12.2334 7.58515 11.9866 7.42061 11.856C7.24155 11.7156 7.09637 11.7301 6.89795 11.9043Z" stroke="black"/>
<path d="M5.17614 13.6078C5.0116 13.7385 4.82286 14.0434 4.73575 14.3241C4.47926 15.1516 4.79866 16.3421 5.52941 17.2858L5.6746 17.4745L4.61477 18.5343L3.5501 19.599L3.28393 19.478C2.64513 19.1828 1.78371 19.2409 1.14007 19.6184C0.849705 19.7878 0.423837 20.2475 0.264136 20.5669C-0.427899 21.9219 0.298012 23.5431 1.76435 23.9254C3.66624 24.4191 5.32616 22.4059 4.46958 20.6443L4.38247 20.4604L5.44714 19.3958L6.50697 18.3359L6.77314 18.5343C7.40227 19.0086 8.38467 19.3522 9.1009 19.3522C9.60904 19.3522 10.3591 18.9796 10.4317 18.6892C10.4753 18.5247 10.3688 18.3311 10.1994 18.2488C10.0543 18.1811 9.92844 18.2246 9.58 18.4472C9.43482 18.5392 9.34771 18.5537 8.97507 18.5489C8.60244 18.5489 8.48145 18.5247 8.15237 18.394C6.7683 17.8472 5.51973 16.3518 5.42779 15.1322C5.39875 14.7112 5.43746 14.5225 5.61168 14.266C5.7859 14.0047 5.80042 13.7966 5.64556 13.6514C5.51973 13.5352 5.29228 13.511 5.17614 13.6078Z" fill="#2408E8"/>
<path d="M5.17614 13.6078C5.0116 13.7385 4.82286 14.0434 4.73575 14.3241C4.47926 15.1516 4.79866 16.3421 5.52941 17.2858L5.6746 17.4745L4.61477 18.5343L3.5501 19.599L3.28393 19.478C2.64513 19.1828 1.78371 19.2409 1.14007 19.6184C0.849705 19.7878 0.423837 20.2475 0.264136 20.5669C-0.427899 21.9219 0.298012 23.5431 1.76435 23.9254C3.66624 24.4191 5.32616 22.4059 4.46958 20.6443L4.38247 20.4604L5.44714 19.3958L6.50697 18.3359L6.77314 18.5343C7.40227 19.0086 8.38467 19.3522 9.1009 19.3522C9.60904 19.3522 10.3591 18.9796 10.4317 18.6892C10.4753 18.5247 10.3688 18.3311 10.1994 18.2488C10.0543 18.1811 9.92844 18.2246 9.58 18.4472C9.43482 18.5392 9.34771 18.5537 8.97507 18.5489C8.60244 18.5489 8.48145 18.5247 8.15237 18.394C6.7683 17.8472 5.51973 16.3518 5.42779 15.1322C5.39875 14.7112 5.43746 14.5225 5.61168 14.266C5.7859 14.0047 5.80042 13.7966 5.64556 13.6514C5.51973 13.5352 5.29228 13.511 5.17614 13.6078Z" stroke="black"/>
</svg>
