<svg width="24" height="24" viewBox="0 0 24 24" fill="none" xmlns="http://www.w3.org/2000/svg">
<path d="M8.39153 0.171129C7.68264 0.429335 7.462 0.523226 6.99723 0.753263C6.61227 0.945744 6.57471 0.955132 6.44326 0.898796C6.36815 0.865934 6.17097 0.837767 6.01136 0.833073C5.67804 0.833073 5.44331 0.941048 4.65461 1.44807C3.3495 2.2931 2.29321 3.34939 1.44818 4.6545C0.941157 5.4432 0.833181 5.67793 0.833181 6.01125C0.837875 6.17086 0.866043 6.36334 0.898906 6.44315C0.955241 6.5746 0.945852 6.61216 0.758067 6.99243C0.532724 7.43842 0.251047 8.13322 0.0820401 8.64493C-0.0447149 9.03459 -0.0259364 9.33504 0.147765 9.63081C0.330855 9.94065 0.560892 10.0721 1.30264 10.2693C1.66413 10.3632 1.97398 10.4524 1.98806 10.4665C1.99745 10.4805 1.98806 10.5838 1.96459 10.7012C1.77211 11.565 1.71108 13.241 1.83783 14.2644C2.10073 16.3817 2.96924 18.3722 4.34946 20.0294C6.06769 22.1044 8.54176 23.4847 11.3022 23.9119C12.044 24.0292 13.6871 24.0292 14.4664 23.9166C18.5225 23.3157 21.9027 20.5787 23.3392 16.7291C23.5646 16.1329 23.804 15.1799 23.912 14.471C24.0293 13.6917 24.0293 12.0579 23.912 11.3021C23.4848 8.53696 22.1045 6.06758 20.0295 4.34465C18.3441 2.94566 16.41 2.10532 14.2645 1.83772C13.2411 1.71097 11.5651 1.772 10.7013 1.96448C10.5839 1.98795 10.4806 2.00204 10.4713 1.98795C10.4572 1.97856 10.368 1.66872 10.2694 1.30253C10.0675 0.556089 9.94076 0.330746 9.62622 0.142962C9.28821 -0.0542126 8.97836 -0.0495186 8.39153 0.171129ZM9.18023 0.987995C9.22718 1.03963 9.89382 3.48554 9.89382 3.58412C9.89382 3.6076 9.62622 3.72966 9.30229 3.85641C6.83761 4.81881 4.81892 6.8375 3.85652 9.30218C3.72977 9.62611 3.60771 9.89371 3.57954 9.89371C3.45278 9.89371 1.03505 9.22237 0.978714 9.16604C0.927073 9.1144 0.931768 9.05337 1.02097 8.78108C1.1665 8.33978 1.55146 7.4525 1.7768 7.03937C1.98806 6.64502 2.01153 6.4056 1.866 6.21781C1.81436 6.15209 1.77211 6.05819 1.77211 6.01125C1.77211 5.90797 2.2181 5.16621 2.60775 4.61694C2.96454 4.10992 4.08656 2.98791 4.60297 2.61703C5.17571 2.2086 5.90338 1.772 6.01136 1.772C6.0583 1.772 6.1522 1.81425 6.21792 1.86589C6.4104 2.01612 6.65452 1.98795 7.04418 1.77669C7.43852 1.55605 8.01127 1.30723 8.60279 1.08658C9.08634 0.908186 9.11451 0.903492 9.18023 0.987995ZM14.4241 2.80482C16.9592 3.22264 19.0859 4.42916 20.7384 6.39621C22.621 8.63085 23.4566 11.8091 22.9214 14.6963C22.3815 17.5835 20.6633 20.0811 18.1564 21.6115C15.2128 23.4048 11.49 23.5645 8.39623 22.0246C6.33529 21.0012 4.72033 19.3862 3.74385 17.3816C2.94107 15.7244 2.62183 14.147 2.72042 12.2645C2.74389 11.734 2.86595 10.8279 2.92229 10.734C2.93637 10.72 3.0866 10.7434 3.2603 10.7904C3.65935 10.9031 3.76263 10.9031 4.02553 10.781C4.19923 10.6965 4.33537 10.6777 4.82362 10.673C5.39636 10.6683 5.41983 10.6636 5.76254 10.4993C6.25548 10.2599 6.4996 10.0205 6.96906 9.32096C7.70142 8.22711 8.22722 7.70131 9.32107 6.96895C10.0112 6.50888 10.2412 6.27415 10.4947 5.76713C10.6684 5.41972 10.6684 5.41034 10.6731 4.8282C10.6778 4.37752 10.6966 4.19912 10.7529 4.09114C10.8797 3.84233 10.8938 3.6076 10.7952 3.26019C10.7435 3.08649 10.7201 2.93627 10.7342 2.92218C10.828 2.86585 11.7341 2.74379 12.2646 2.72031C12.9547 2.68276 13.9312 2.72031 14.4241 2.80482ZM9.68725 5.31175C9.5605 5.6169 9.36802 5.80938 8.88916 6.12392C7.64039 6.94078 6.94559 7.63559 6.12403 8.88906C5.70151 9.53691 5.40105 9.75287 4.91751 9.75287H4.68278L4.77667 9.51814C5.57006 7.50414 7.42913 5.63568 9.4713 4.79534L9.7295 4.69206L9.74359 4.9174C9.75298 5.04415 9.72481 5.21786 9.68725 5.31175Z" fill="#2408E8"/>
<path d="M7.22302 3.05831C6.85684 3.26018 6.93665 3.83762 7.34039 3.91274C7.83332 4.00193 8.11031 3.43388 7.73004 3.11465C7.57512 2.9832 7.39672 2.95973 7.22302 3.05831Z" fill="#2408E8"/>
<path d="M3.23188 7.04868C2.98307 7.18952 2.92204 7.50406 3.10982 7.7247C3.32578 7.98291 3.72013 7.95944 3.86096 7.68245C3.95016 7.51345 3.95016 7.38669 3.86096 7.21768C3.7389 6.98765 3.47601 6.91253 3.23188 7.04868Z" fill="#2408E8"/>
<path d="M13.0857 3.81424C13.0106 3.8518 12.7899 4.18982 12.4801 4.73439C11.9214 5.71087 11.8885 5.82824 12.142 6.05358C12.3251 6.21789 12.5599 6.22728 12.7336 6.07706C12.8885 5.94091 13.7899 4.36821 13.7899 4.22737C13.7899 3.86119 13.4049 3.63585 13.0857 3.81424Z" fill="#2408E8"/>
<path d="M17.4989 5.13799C17.4614 5.15208 17.053 5.37742 16.5929 5.63562C15.7478 6.11917 15.6211 6.22715 15.6211 6.46657C15.6211 6.71539 15.8511 6.93604 16.1046 6.93604C16.2361 6.93604 17.6961 6.10978 17.9121 5.9173C18.0294 5.80463 18.0623 5.7389 18.0623 5.60746C18.0623 5.32578 17.7384 5.05818 17.4989 5.13799Z" fill="#2408E8"/>
<path d="M11.8944 7.33986C10.4954 7.59337 9.21842 8.39615 8.35461 9.55572C6.67393 11.8185 6.9603 15.0156 9.01655 16.9685C9.60338 17.5225 10.4954 18.0718 10.8193 18.0718C11.162 18.0718 11.3733 17.7525 11.2371 17.4333C11.1808 17.3019 11.1057 17.2361 10.824 17.0953C9.56582 16.4615 8.71609 15.4146 8.33583 14.0344C8.25602 13.7386 8.23724 13.5321 8.23254 12.8983C8.22785 11.9735 8.30766 11.6026 8.67384 10.8561C9.16208 9.85148 9.92261 9.10504 10.9413 8.62618C11.5188 8.3539 11.9789 8.24592 12.6877 8.21775C13.3919 8.18958 13.8849 8.26 14.514 8.49004C16.0303 9.03931 17.157 10.3726 17.5044 12.0298C17.5889 12.4288 17.5749 13.4053 17.481 13.8419C17.373 14.3349 17.1289 14.9452 16.8613 15.3771C16.4341 16.0625 15.6594 16.7526 14.8848 17.1422C14.7534 17.208 14.6079 17.3112 14.5703 17.3676C14.3778 17.6399 14.5938 18.0718 14.9224 18.0718C15.2933 18.0718 16.251 17.4756 16.8566 16.87C17.6547 16.0719 18.1711 15.1048 18.4199 13.9546C18.5373 13.4006 18.5326 12.3537 18.4058 11.7716C17.8988 9.44774 16.1242 7.7342 13.8192 7.33516C13.3074 7.24596 12.392 7.25066 11.8944 7.33986Z" fill="#2408E8"/>
<path d="M18.7203 8.48991C18.5419 8.56503 18.4433 8.673 18.4104 8.83731C18.3776 9.01102 18.4809 9.25514 18.6217 9.33025C18.678 9.35842 19.1334 9.3772 19.7625 9.3772H20.8141L20.9408 9.24575C21.199 8.97815 21.0535 8.54155 20.6873 8.46644C20.4526 8.41949 18.847 8.43827 18.7203 8.48991Z" fill="#2408E8"/>
<path d="M12.5659 9.27869C12.2044 9.64487 12.6269 10.2458 13.0823 10.0111C13.2184 9.94533 13.3687 9.72938 13.3687 9.61201C13.3687 9.48526 13.2137 9.24583 13.1058 9.19419C12.8992 9.1003 12.7161 9.13316 12.5659 9.27869Z" fill="#2408E8"/>
<path d="M11.0436 9.61681C10.7526 9.78582 10.6962 10.1379 10.9216 10.368C11.1094 10.5557 11.3394 10.5557 11.546 10.368C11.8417 10.1051 11.6962 9.64498 11.2971 9.58395C11.2126 9.57456 11.0953 9.58864 11.0436 9.61681Z" fill="#2408E8"/>
<path d="M14.3307 9.61681C14.0397 9.78582 13.9833 10.1379 14.2087 10.368C14.3965 10.5557 14.6265 10.5557 14.8331 10.368C15.1288 10.1051 14.9833 9.64498 14.5843 9.58395C14.4998 9.57456 14.3824 9.58864 14.3307 9.61681Z" fill="#2408E8"/>
<path d="M9.77097 10.8702C9.40948 11.1613 9.58788 11.7012 10.0433 11.7012C10.2921 11.7012 10.5033 11.4805 10.5033 11.227C10.5033 10.8749 10.0386 10.6496 9.77097 10.8702Z" fill="#2408E8"/>
<path d="M15.4422 10.9032C15.2638 11.0534 15.2262 11.2083 15.3107 11.4149C15.5079 11.889 16.1839 11.7482 16.1839 11.2318C16.1839 11.105 16.1463 11.0252 16.0478 10.9219C15.8694 10.7435 15.6393 10.7388 15.4422 10.9032Z" fill="#2408E8"/>
<path d="M12.3486 11.0909C11.8603 11.2411 11.4331 11.6167 11.1984 12.0909C10.9214 12.6542 10.973 13.3772 11.3298 13.9171C11.7289 14.5321 12.5176 14.8701 13.2077 14.7292C14.0011 14.5649 14.5644 14.0016 14.7287 13.2082C14.9118 12.3256 14.3344 11.382 13.4518 11.105C13.1279 11.0064 12.6349 10.997 12.3486 11.0909ZM13.4095 12.1143C13.8978 12.4383 13.9588 13.119 13.5363 13.5368C12.9636 14.1142 12.0293 13.7622 11.9683 12.95C11.9401 12.5509 12.1185 12.2411 12.4988 12.0345C12.7194 11.9172 13.1654 11.9547 13.4095 12.1143Z" fill="#2408E8"/>
<path d="M4.04389 12.025C3.72935 12.1658 3.64015 12.5226 3.87489 12.748C3.9453 12.8184 4.36782 13.086 4.81381 13.3395C5.54617 13.7573 5.64007 13.7996 5.79968 13.7761C6.03441 13.7385 6.18464 13.5601 6.18464 13.316C6.18464 13.1846 6.15178 13.1001 6.08136 13.025C5.96399 12.9123 4.43824 12.0297 4.28332 11.9874C4.23168 11.9734 4.1237 11.9921 4.04389 12.025Z" fill="#2408E8"/>
<path d="M19.8602 12.0298C19.7147 12.0908 19.5645 12.3068 19.5645 12.4523C19.5645 12.6777 19.71 12.7997 20.5644 13.2927C21.5315 13.8513 21.6395 13.8795 21.8695 13.6541C22.0432 13.4758 22.0573 13.1941 21.9024 13.0251C21.7756 12.8936 20.3015 12.0345 20.1278 11.9923C20.0621 11.9782 19.9447 11.9923 19.8602 12.0298Z" fill="#2408E8"/>
<path d="M9.27803 12.5649C9.1325 12.7151 9.09963 12.8982 9.19353 13.1048C9.24517 13.2128 9.48459 13.3677 9.61135 13.3677C9.72871 13.3677 9.94467 13.2174 10.0104 13.0813C10.2451 12.6259 9.64421 12.2034 9.27803 12.5649Z" fill="#2408E8"/>
<path d="M15.8507 12.5651C15.5878 12.828 15.7193 13.2646 16.0902 13.3444C16.3765 13.4054 16.6911 13.0909 16.63 12.8045C16.5502 12.4336 16.1136 12.3022 15.8507 12.5651Z" fill="#2408E8"/>
<path d="M9.77097 14.1564C9.40948 14.4474 9.58788 14.9873 10.0433 14.9873C10.2921 14.9873 10.5033 14.7667 10.5033 14.5131C10.5033 14.161 10.0386 13.9357 9.77097 14.1564Z" fill="#2408E8"/>
<path d="M15.4422 14.1894C15.2638 14.3396 15.2262 14.4945 15.3107 14.7011C15.4093 14.9311 15.6252 15.0391 15.86 14.9687C16.0806 14.903 16.1839 14.7621 16.1839 14.5274C16.1839 14.133 15.7426 13.9359 15.4422 14.1894Z" fill="#2408E8"/>
<path d="M11.0856 15.2926C10.926 15.3536 10.7852 15.5696 10.7852 15.748C10.7852 15.9827 10.9964 16.1846 11.2405 16.1846C11.4753 16.1846 11.6161 16.0813 11.6818 15.8606C11.7522 15.6259 11.6443 15.4053 11.4189 15.3114C11.2358 15.2363 11.2218 15.2363 11.0856 15.2926Z" fill="#2408E8"/>
<path d="M14.3721 15.2925C14.0669 15.4145 13.9777 15.8183 14.2078 16.0483C14.4613 16.3018 14.865 16.1985 14.9683 15.8605C15.0387 15.6258 14.9307 15.4052 14.7054 15.3113C14.5223 15.2361 14.5082 15.2361 14.3721 15.2925Z" fill="#2408E8"/>
<path d="M19.0341 15.715C18.8651 15.8465 18.8134 16.0342 18.8792 16.2361C18.9684 16.4849 19.7946 17.8886 19.9073 17.9778C20.1655 18.1844 20.5739 18.0107 20.6303 17.6727C20.6537 17.513 20.6115 17.4239 20.1937 16.6868C19.9402 16.2455 19.6726 15.823 19.6068 15.7479C19.4519 15.5929 19.2125 15.5789 19.0341 15.715Z" fill="#2408E8"/>
<path d="M12.5656 15.8512C12.3027 16.1141 12.4341 16.5507 12.805 16.6305C13.0914 16.6915 13.4059 16.377 13.3449 16.0906C13.2651 15.7198 12.8285 15.5883 12.5656 15.8512Z" fill="#2408E8"/>
<path d="M4.84145 16.532C4.66305 16.7104 4.63958 16.8606 4.75225 17.0718C4.86492 17.2972 4.99168 17.316 6.109 17.3019L7.13243 17.2878L7.2451 17.1564C7.36716 17.0155 7.39533 16.7667 7.31082 16.6024C7.19815 16.4005 7.04323 16.3723 5.99163 16.3723H5.00107L4.84145 16.532Z" fill="#2408E8"/>
<path d="M12.5647 17.7291C12.3394 17.9591 12.4004 18.3206 12.6868 18.4614C12.8792 18.5506 12.9168 18.5506 13.0858 18.4614C13.5318 18.2314 13.3722 17.5929 12.8745 17.5929C12.7478 17.5929 12.668 17.6305 12.5647 17.7291Z" fill="#2408E8"/>
<path d="M16.6719 18.4379C16.6156 18.4567 16.5264 18.5365 16.4701 18.6069C16.3715 18.7337 16.3668 18.7665 16.3809 19.7899L16.395 20.8415L16.5264 20.9542C16.7189 21.1185 16.9912 21.1091 17.1743 20.9307L17.3104 20.7946V19.7524V18.7102L17.1508 18.5506C16.9912 18.3909 16.8644 18.3581 16.6719 18.4379Z" fill="#2408E8"/>
<path d="M8.7015 19.3253C8.2696 19.5789 7.86586 19.8324 7.81422 19.8887C7.7438 19.9591 7.71094 20.0483 7.71094 20.1798C7.71094 20.3394 7.73911 20.3957 7.86586 20.5084C7.96445 20.5929 8.06773 20.6445 8.16162 20.6445C8.34471 20.6445 9.99722 19.7009 10.0723 19.5507C10.2507 19.1939 10.0676 18.8606 9.69677 18.8653C9.52776 18.8653 9.36345 18.9404 8.7015 19.3253Z" fill="#2408E8"/>
<path d="M13.1566 19.607C13.105 19.6304 13.0299 19.6868 12.9876 19.7337C12.8937 19.8417 12.0675 21.2642 12.0064 21.4144C11.9454 21.574 12.0299 21.8416 12.1707 21.9308C12.3069 22.02 12.6073 22.0247 12.72 21.9402C12.8609 21.8369 13.7528 20.2595 13.7763 20.0764C13.7951 19.9356 13.7763 19.8792 13.6683 19.7572C13.5228 19.6023 13.3115 19.5412 13.1566 19.607Z" fill="#2408E8"/>
</svg>
