<svg width="102" height="14" viewBox="0 0 102 14" fill="none" xmlns="http://www.w3.org/2000/svg">
<path d="M7 0L9.31235 3.81733L13.6574 4.83688L10.7415 8.21567L11.1145 12.6631L7 10.934L2.8855 12.6631L3.25854 8.21567L0.342604 4.83688L4.68765 3.81733L7 0Z" fill="#FBC400"/>
<path d="M29 0L31.3123 3.81733L35.6574 4.83688L32.7415 8.21567L33.1145 12.6631L29 10.934L24.8855 12.6631L25.2585 8.21567L22.3426 4.83688L26.6877 3.81733L29 0Z" fill="#FBC400"/>
<path d="M51 0L53.3123 3.81733L57.6574 4.83688L54.7415 8.21567L55.1145 12.6631L51 10.934L46.8855 12.6631L47.2585 8.21567L44.3426 4.83688L48.6877 3.81733L51 0Z" fill="#FBC400"/>
<path d="M73 0L75.3123 3.81733L79.6574 4.83688L76.7415 8.21567L77.1145 12.6631L73 10.934L68.8855 12.6631L69.2585 8.21567L66.3426 4.83688L70.6877 3.81733L73 0Z" fill="#FBC400"/>
<path d="M95 0L97.3123 3.81733L101.657 4.83688L98.7415 8.21567L99.1145 12.6631L95 10.934L90.8855 12.6631L91.2585 8.21567L88.3426 4.83688L92.6877 3.81733L95 0Z" fill="#FBC400"/>
</svg>
