<svg width="24" height="22" viewBox="0 0 24 22" fill="none" xmlns="http://www.w3.org/2000/svg">
<path d="M6.55186 0.330147C4.8047 0.710577 4.52759 0.781029 4.06262 0.968895C3.51311 1.19434 0.681018 2.72075 0.469667 2.90862C0.164384 3.17633 0 3.54737 0 3.95598C0 4.23778 0.0375734 4.38807 0.272407 5.03621C0.596478 5.92858 0.709198 6.07418 1.02857 6.03191C1.13659 6.01782 1.26341 5.99434 1.31507 5.97555C1.39491 5.95207 1.43718 6.00843 1.61096 6.35598L1.81292 6.76459L1.6955 6.8867C1.52642 7.06048 1.52642 7.36576 1.6908 7.52545C1.80352 7.64287 1.84579 7.65696 2.10881 7.66165C2.24031 7.66635 2.2638 7.69923 2.43757 8.08436C2.57378 8.38494 2.61135 8.50706 2.56908 8.52584C2.49393 8.54933 2.37182 8.78416 2.37182 8.91097C2.37182 9.18338 2.65362 9.41821 2.92603 9.36655C3.04814 9.34776 3.06223 9.36655 3.2501 9.75637C3.42387 10.1321 3.43796 10.1791 3.37221 10.2354C3.25949 10.3294 3.17495 10.5642 3.20313 10.7098C3.2407 10.9118 3.48023 11.0808 3.69159 11.062L3.86536 11.048L4.06732 11.4519L4.26458 11.8605L4.14247 12.0108C3.87006 12.3301 4.07202 12.7622 4.49472 12.7622H4.69667L5.03014 13.4573C5.34012 14.1055 5.35421 14.1572 5.30254 14.2887C5.26497 14.3732 5.24149 14.6456 5.23679 14.9838V15.5333L4.58395 15.956C4.15656 16.2331 3.88885 16.4444 3.809 16.5572C3.63523 16.8155 3.58356 17.1818 3.60235 18.0695C3.61644 18.7693 3.62583 18.8679 3.72916 19.0699C3.78552 19.192 3.90763 19.347 3.99687 19.4127C4.29276 19.6429 4.42896 19.6617 5.61722 19.6664H6.72564L7.14364 20.399C7.59922 21.1928 7.82935 21.4605 8.14403 21.545C8.28024 21.5779 9.23836 21.592 11.2861 21.5826C14.1699 21.5685 14.2403 21.5638 14.6067 21.4605C15.499 21.2116 16.2928 20.6527 16.8329 19.8871L16.9926 19.6664H18.2419C19.5804 19.6617 19.7025 19.6476 20.0031 19.4127C20.0924 19.347 20.2145 19.192 20.2708 19.0699C20.3742 18.8679 20.3836 18.7693 20.3977 18.0695C20.4164 17.1818 20.3648 16.8155 20.191 16.5572C20.1112 16.4444 19.8434 16.2331 19.416 15.956L18.7632 15.5333V14.9838C18.7585 14.6456 18.735 14.3732 18.6975 14.2887C18.6458 14.1572 18.6599 14.1055 18.9699 13.4573L19.3033 12.7622H19.5053C19.928 12.7622 20.1299 12.3301 19.8575 12.0108L19.7354 11.8605L19.9327 11.4519L20.1346 11.048L20.3084 11.062C20.5198 11.0808 20.7593 10.9118 20.7969 10.7098C20.825 10.5642 20.7405 10.3294 20.6278 10.2354C20.562 10.1791 20.5761 10.1321 20.7499 9.76107C20.9425 9.35246 20.9519 9.34776 21.0975 9.37124C21.3558 9.40882 21.6282 9.17398 21.6282 8.90627C21.6282 8.78416 21.5061 8.54933 21.4309 8.52584C21.3887 8.50706 21.4262 8.38494 21.5624 8.08436C21.7362 7.69923 21.7597 7.66635 21.8912 7.66165C22.1542 7.65696 22.1965 7.64287 22.3092 7.52545C22.4736 7.36576 22.4736 7.06048 22.3045 6.8867L22.1871 6.76459L22.389 6.35598C22.5628 6.00843 22.6051 5.95207 22.6849 5.97555C22.7366 5.99434 22.8634 6.01782 22.9714 6.03191C23.2861 6.07418 23.3988 5.92858 23.7229 5.03621C23.9624 4.38807 24 4.24248 24 3.95598C24 3.54737 23.8356 3.17633 23.5303 2.90862C23.3706 2.76772 21.2994 1.62643 20.2802 1.11919C19.7166 0.837389 19.2564 0.715275 17.1194 0.264395C15.5977 -0.0502834 15.3628 -0.0690689 14.9448 0.128191C14.7006 0.245607 14.4282 0.489834 14.3202 0.701185C14.1746 0.978289 13.7378 2.24639 13.7378 2.38729C13.7378 2.59394 13.8599 2.74424 14.0947 2.83348C14.2732 2.89923 14.2967 2.92741 14.2732 3.01195C14.2544 3.06831 14.2027 3.25618 14.1558 3.42995C14.1088 3.60843 14.0665 3.76342 14.0524 3.77281C14.0431 3.7822 13.8975 3.73054 13.7237 3.6507C13.1554 3.39238 12.7045 3.30314 12 3.30314C11.2955 3.30314 10.8352 3.39708 10.2716 3.65539C10.1025 3.73054 9.95695 3.7822 9.94755 3.77281C9.93346 3.76342 9.89119 3.60843 9.84423 3.42995C9.79726 3.25618 9.7456 3.06831 9.72681 3.01195C9.70333 2.92741 9.72681 2.89923 9.90528 2.83348C10.1401 2.74424 10.2622 2.59394 10.2622 2.38729C10.2622 2.24639 9.82544 0.978289 9.67984 0.701185C9.57182 0.489834 9.29941 0.245607 9.05049 0.128191C8.6184 -0.0737667 8.31311 -0.0502834 6.55186 0.330147ZM8.78278 1.07692C8.90489 1.22252 9.20548 2.04913 9.15382 2.0961C9.13033 2.11488 8.67945 2.28866 8.14873 2.47653C7.0638 2.87105 6.92759 2.95559 6.92759 3.26557C6.92759 3.40177 6.96047 3.48162 7.04501 3.57085C7.24227 3.76342 7.36438 3.75872 8.05479 3.5098C8.40235 3.38299 8.71703 3.27496 8.7546 3.26557C8.80157 3.25618 8.85323 3.37829 8.93307 3.69297C8.99413 3.9325 9.0411 4.13915 9.0317 4.14385C9.02231 4.15324 7.65558 4.65578 5.98826 5.26166C4.32094 5.87222 2.90254 6.38886 2.8274 6.41704C2.70059 6.4687 2.69589 6.464 2.51272 6.06009C2.40939 5.83935 2.32485 5.64209 2.32485 5.6233C2.32485 5.60451 2.61605 5.48709 2.9683 5.36028C3.70568 5.10197 3.87476 4.97985 3.87476 4.71214C3.87476 4.47731 3.6728 4.25187 3.45205 4.24717C3.35342 4.24717 2.87436 4.39277 2.28258 4.60882C1.63444 4.84365 1.2681 4.95637 1.24932 4.92349C1.23053 4.89532 1.14599 4.66518 1.05675 4.41156C0.911155 3.98886 0.901761 3.93719 0.958121 3.79629C0.995695 3.71645 1.07554 3.60843 1.14599 3.56146C1.28689 3.46283 3.3816 2.34502 4.00626 2.03504C4.59335 1.74384 4.87045 1.664 6.6364 1.27888C8.37887 0.893747 8.609 0.874962 8.78278 1.07692ZM17.3354 1.27418C18.829 1.59355 19.3738 1.73915 19.773 1.91762C20.0125 2.02565 22.6286 3.42056 22.807 3.53328C22.901 3.59434 23.0043 3.71175 23.0372 3.79629C23.0982 3.93719 23.0888 3.98416 22.9432 4.41156C22.854 4.66518 22.7695 4.89532 22.7507 4.92349C22.7319 4.95637 21.2994 4.45852 18.8055 3.55207C16.6497 2.77242 14.8697 2.11488 14.8462 2.0961C14.8039 2.05852 15.0575 1.30705 15.175 1.12388C15.2548 1.00177 15.3957 0.936018 15.5742 0.931322C15.6399 0.926624 16.4337 1.08162 17.3354 1.27418ZM18.5519 4.45852C20.2568 5.07849 21.6611 5.59042 21.6705 5.60451C21.6798 5.61391 21.6047 5.80647 21.4967 6.03191C21.3793 6.29023 21.2853 6.44052 21.2431 6.43113C21.1585 6.40764 14.9871 4.16263 14.9683 4.14385C14.9542 4.13445 15.1186 3.42995 15.1703 3.28905C15.1843 3.24209 15.2219 3.24209 15.3205 3.27966C15.391 3.30784 16.847 3.83856 18.5519 4.45852ZM12.8454 4.33171C12.9863 4.36929 13.2822 4.4867 13.5029 4.59473C13.8176 4.75441 13.9867 4.87653 14.3061 5.1959C14.6395 5.53406 14.7429 5.67496 14.926 6.046C15.4614 7.14032 15.4004 8.27222 14.7476 9.2867C13.6204 11.0386 11.1828 11.3016 9.69863 9.84091C8.67945 8.84052 8.43523 7.35637 9.07397 6.046C9.25714 5.67027 9.35108 5.53406 9.69863 5.1912C10.0415 4.85304 10.1777 4.75441 10.5487 4.57594C10.793 4.45852 11.1076 4.34111 11.2485 4.31293C11.3894 4.28475 11.5491 4.25187 11.6008 4.24248C11.7746 4.20021 12.5824 4.25657 12.8454 4.33171ZM8.27554 5.49179C8.11585 5.84404 7.91389 6.36537 7.91389 6.42643C7.91389 6.4687 7.88571 6.52506 7.85284 6.55794C7.79178 6.6049 3.53659 8.1689 3.51781 8.14541C3.47554 8.09844 3.17495 7.455 3.16086 7.38925C3.14677 7.3141 3.49432 7.1732 5.68297 6.37007C7.07789 5.85813 8.23796 5.44013 8.26145 5.44013C8.28024 5.43543 8.28963 5.46361 8.27554 5.49179ZM18.2795 6.35598C19.6697 6.86322 20.8204 7.29062 20.8438 7.3094C20.8673 7.33289 20.5479 8.07966 20.4822 8.14541C20.4634 8.1642 16.2082 6.6049 16.1472 6.55794C16.1143 6.52976 16.0861 6.4687 16.0861 6.42643C16.0861 6.36537 15.8841 5.84404 15.7245 5.49179C15.7104 5.46361 15.7104 5.43543 15.7245 5.43543C15.7386 5.43543 16.8845 5.84874 18.2795 6.35598ZM7.82466 8.09844C7.86693 8.35207 7.89511 8.56342 7.89511 8.56342C7.89041 8.56811 7.12016 8.84991 6.17613 9.19277C5.23209 9.53563 4.43836 9.82682 4.40548 9.83621C4.3726 9.8503 4.26458 9.68592 4.13777 9.437L3.92642 9.0143L4.45245 8.82173C4.74364 8.71371 5.57965 8.40843 6.31703 8.14072C7.0544 7.86831 7.67906 7.64756 7.70724 7.64756C7.73072 7.64287 7.78708 7.84952 7.82466 8.09844ZM18.0681 8.28162C19.0309 8.63387 19.8763 8.94385 19.9468 8.96733L20.0736 9.0143L19.8622 9.437C19.6932 9.77516 19.6368 9.8503 19.571 9.82682C19.5288 9.81273 18.7303 9.52154 17.8004 9.18338C16.8705 8.84522 16.1096 8.56811 16.1049 8.56342C16.0861 8.53524 16.2552 7.64287 16.2787 7.64287C16.2975 7.64287 17.1053 7.92937 18.0681 8.28162ZM8.36477 9.64835C8.43523 9.77516 8.55264 9.95363 8.63249 10.0523C8.70763 10.1509 8.76399 10.2354 8.7546 10.2448C8.73112 10.2636 5.34012 11.4988 5.2274 11.5317C5.16634 11.5458 5.10528 11.4566 4.95499 11.1372C4.85166 10.9118 4.77652 10.7192 4.78591 10.7098C4.7953 10.7004 5.57025 10.4092 6.50959 10.0664C7.44892 9.7188 8.22388 9.437 8.22857 9.4323C8.22857 9.4276 8.28963 9.52623 8.36477 9.64835ZM19.2141 10.7098C19.2235 10.7192 19.1483 10.9118 19.045 11.1372C18.8947 11.4566 18.8337 11.5458 18.7726 11.5317C18.6599 11.4988 15.2689 10.2636 15.2454 10.2448C15.236 10.2354 15.2924 10.1509 15.3675 10.0523C15.4474 9.95363 15.5648 9.77516 15.6352 9.65774L15.7573 9.44169L17.481 10.0664C18.425 10.4092 19.2047 10.7004 19.2141 10.7098ZM9.82544 11.1231L10.0838 11.2734L9.8818 11.3767C9.76908 11.4331 8.88611 11.9403 7.91859 12.4992C6.95108 13.0581 6.14795 13.5137 6.12916 13.5137C6.11507 13.5137 5.97887 13.2648 5.83327 12.9642C5.6454 12.5744 5.57965 12.4053 5.62192 12.3912C5.65479 12.3818 6.53777 12.0577 7.58513 11.6773C8.63249 11.2969 9.50607 10.9822 9.52955 10.9775C9.55303 10.9775 9.68454 11.0433 9.82544 11.1231ZM16.3069 11.6397C17.3119 12.0061 18.1996 12.3254 18.2841 12.3583L18.4391 12.4147L18.1714 12.9501C18.0305 13.246 17.899 13.4996 17.8896 13.509C17.8708 13.5278 17.5421 13.3446 15.499 12.1611C14.8556 11.7853 14.2309 11.4331 14.1229 11.3767L13.9162 11.2734L14.1699 11.1278C14.3061 11.0433 14.4329 10.9775 14.4517 10.9775C14.4705 10.9775 15.3065 11.2734 16.3069 11.6397ZM15.7432 13.3869L17.8004 14.5752L17.8239 15.2562C17.8427 15.754 17.8661 15.9654 17.9178 16.0452C17.9554 16.1016 18.317 16.3646 18.7162 16.6276L19.4442 17.1067L19.4583 17.8534C19.4677 18.3607 19.4536 18.619 19.416 18.6613C19.3738 18.7129 19.1577 18.727 18.3781 18.727C17.4622 18.727 17.3965 18.7223 17.42 18.6425C17.5092 18.3466 17.5515 17.8487 17.528 17.3885C17.4434 15.693 16.2881 14.2652 14.6067 13.7861C14.1135 13.6452 13.0849 13.6358 12.6106 13.7673C12.1926 13.88 11.5068 14.2135 11.225 14.4343C11.0982 14.5376 10.9667 14.6362 10.9339 14.655C10.9057 14.6738 10.7648 14.608 10.6145 14.5047C10.1354 14.1665 9.52016 14.0256 8.95186 14.1243C7.66967 14.3403 6.81018 15.5896 7.07319 16.8577C7.29863 17.9427 8.38826 18.7646 9.46849 18.666L9.73151 18.6425L9.8818 19.0323C10.0603 19.5067 10.4172 20.0609 10.7554 20.399L11.009 20.6527L9.68924 20.6433L8.36477 20.6292L7.86693 19.765C7.58982 19.2906 7.31742 18.8632 7.25636 18.8116C7.16243 18.7364 7.04501 18.727 5.89432 18.727C4.87984 18.727 4.62622 18.7129 4.58395 18.6613C4.54638 18.619 4.53229 18.3607 4.54168 17.8534L4.55577 17.1067L5.28376 16.6276C5.68297 16.3646 6.04462 16.1016 6.08219 16.0452C6.13386 15.9654 6.15734 15.754 6.17613 15.2562L6.19961 14.5752L8.24266 13.3916L10.2857 12.208L11.9859 12.2033L13.6814 12.1986L15.7432 13.3869ZM14.5268 14.7489C15.0153 14.918 15.3487 15.1294 15.7339 15.5098C16.3397 16.1063 16.6356 16.9 16.5886 17.783C16.5464 18.5767 16.2693 19.2014 15.7104 19.7603C15.3534 20.1125 15.0106 20.3286 14.5268 20.4977C14.2262 20.6057 14.1088 20.6245 13.5969 20.6245C13.0802 20.6245 12.9675 20.6104 12.6434 20.4977C11.6947 20.1689 10.9432 19.3845 10.6568 18.4217C10.5393 18.0366 10.5393 17.21 10.6568 16.8296C10.9808 15.7493 11.7699 14.9791 12.8548 14.6879C13.3386 14.5564 14.0477 14.5799 14.5268 14.7489ZM9.90998 15.181C10.2904 15.3642 10.2904 15.3783 10.0791 15.7728C9.83953 16.219 9.70802 16.6652 9.63757 17.2382C9.57652 17.7595 9.55773 17.7783 9.14442 17.7219C8.50098 17.6327 7.96086 17.0362 7.96086 16.4069C7.96086 15.7869 8.40235 15.2186 9.01761 15.0589C9.25245 14.9979 9.64697 15.0495 9.90998 15.181Z" fill="#2408E8"/>
<path d="M5.09108 3.64127C4.95488 3.76338 4.9314 3.81035 4.93609 3.98413C4.94079 4.14851 4.96897 4.20957 5.09578 4.32229C5.22729 4.4397 5.27425 4.45379 5.44333 4.43501C5.69695 4.40213 5.84725 4.22835 5.84725 3.97943C5.84725 3.73051 5.69695 3.55673 5.44333 3.52385C5.27425 3.50037 5.22729 3.51916 5.09108 3.64127Z" fill="#2408E8"/>
<path d="M11.5441 5.69375C10.9758 5.84874 10.5484 6.20569 10.2948 6.74111C10.1586 7.0276 10.1445 7.09805 10.1445 7.50197C10.1445 7.90588 10.1586 7.98103 10.2901 8.25344C10.5437 8.78416 10.8913 9.10353 11.4267 9.28201C12.1171 9.51684 12.9203 9.2961 13.4087 8.74189C13.4933 8.64326 13.6295 8.42252 13.7093 8.25344C13.8408 7.98103 13.8549 7.90588 13.8549 7.50197C13.8549 7.09805 13.8408 7.0276 13.7093 6.7505C13.5167 6.34659 13.2443 6.0507 12.9062 5.87222C12.4459 5.628 12.0044 5.57164 11.5441 5.69375ZM12.5023 6.73171C12.7935 6.91488 12.9156 7.15441 12.9156 7.53484C12.9156 7.77907 12.8921 7.85422 12.7747 8.0233C12.6948 8.13132 12.5398 8.27222 12.4271 8.33328C11.7132 8.70901 10.8772 8.0233 11.1073 7.25304C11.1919 6.96185 11.314 6.82095 11.5911 6.68005C11.9058 6.52036 12.1876 6.53915 12.5023 6.73171Z" fill="#2408E8"/>
<path d="M12.8127 17.1631C12.4839 17.2289 12.3571 17.6845 12.5966 17.9381L12.7234 18.0696H13.5829C14.433 18.0696 14.4471 18.0696 14.5598 17.9569C14.7289 17.7878 14.7571 17.614 14.6491 17.4167C14.5222 17.1772 14.3532 17.1349 13.5735 17.1396C13.2119 17.1396 12.869 17.1537 12.8127 17.1631Z" fill="#2408E8"/>
</svg>
