<svg width="24" height="24" viewBox="0 0 24 24" fill="none" xmlns="http://www.w3.org/2000/svg">
<path d="M17.7204 0.0269184C15.8258 0.289536 14.2454 1.41504 13.4154 3.09861C13.0214 3.89584 12.8432 4.66025 12.8432 5.56534C12.8432 6.76588 13.073 7.46463 13.9312 8.85744C14.433 9.67812 14.6862 10.1846 14.841 10.6958C14.9629 11.085 14.9723 11.1788 14.9723 11.962C14.9723 12.9327 14.9113 13.2469 14.5737 13.9644L14.3814 14.3677L13.964 14.5647C13.2371 14.8976 12.9417 14.9586 11.9991 14.9586C10.7845 14.9539 10.4468 14.8461 9.06809 14.0254C7.98949 13.3782 7.90038 13.3313 7.52052 13.1813C6.84522 12.9139 6.3575 12.8248 5.5462 12.8248C3.46871 12.8295 1.58818 13.9738 0.63619 15.8168C-1.01924 19.0245 0.692465 22.8747 4.19091 23.8079C4.75366 23.958 5.5462 24.0189 6.1324 23.9533C7.08908 23.8454 7.68935 23.6109 8.88989 22.8747C10.067 22.1525 10.6391 21.9227 11.5254 21.8289C12.7776 21.6929 13.9078 22.0446 15.2068 22.9778C15.8539 23.4421 16.6699 23.7751 17.5094 23.9204C18.2832 24.0517 19.4227 23.9439 20.2293 23.6672C21.9645 23.0622 23.1885 21.7538 23.7419 19.9108C23.9201 19.3059 23.9716 18.9542 23.9716 18.3633C23.9716 17.355 23.5871 16.2576 22.7617 14.893C21.866 13.4157 21.6409 12.3512 21.927 10.9537C22.0348 10.405 22.2693 9.88915 22.8039 9.01689C23.4089 8.018 23.6434 7.55842 23.7888 7.05663C24.5297 4.49142 23.2682 1.7058 20.839 0.547464C20.0746 0.181675 19.4462 0.0316086 18.588 0.00347137C18.2785 -0.00590897 17.8892 0.00347137 17.7204 0.0269184ZM19.1976 0.706911C20.3935 0.899185 21.5331 1.56042 22.2599 2.47958C23.4089 3.92867 23.6715 5.87954 22.9352 7.49746C22.8602 7.6569 22.5929 8.12586 22.3444 8.53855C22.0911 8.95123 21.8144 9.42488 21.73 9.59371C21.3455 10.3581 21.186 11.0616 21.186 11.9901C21.186 13.125 21.4674 14.0394 22.1615 15.1556C22.7852 16.1545 23.1088 16.9001 23.2776 17.6973C23.5965 19.2355 22.7383 21.3412 21.383 22.3447C19.3665 23.8407 16.5996 23.6156 14.8738 21.8195C13.8468 20.7456 13.3825 19.4184 13.5091 17.9412C13.5795 17.1299 13.814 16.5343 14.5315 15.3666C15.4553 13.8566 15.6992 13.0593 15.6429 11.7322C15.596 10.6442 15.3568 9.9595 14.5502 8.64641C13.6827 7.23015 13.4904 6.66271 13.4951 5.5372C13.4951 4.55708 13.7765 3.64729 14.3298 2.80785C14.7378 2.18414 15.5351 1.49007 16.2432 1.13835C17.1248 0.702221 18.2034 0.542774 19.1976 0.706911ZM6.41378 13.5377C7.02812 13.6361 7.59087 13.8847 8.62727 14.5178C9.74809 15.2072 10.3015 15.4416 11.1128 15.5729C11.8772 15.6949 12.8385 15.6433 13.5138 15.4369C13.6358 15.3994 13.7342 15.3807 13.7342 15.3901C13.7342 15.4041 13.6498 15.5589 13.5514 15.7324C13.1058 16.5249 12.8901 17.28 12.8573 18.1991C12.8198 19.2168 13.0074 20.0656 13.4623 20.9519C13.5748 21.1676 13.6686 21.3552 13.678 21.3693C13.6827 21.3881 13.5279 21.3599 13.3263 21.3083C12.8573 21.1864 11.6943 21.1442 11.1456 21.2239C10.6954 21.2849 10.067 21.4865 9.64491 21.6976C9.48078 21.7773 8.98837 22.0634 8.54755 22.3307C7.24853 23.1138 6.77488 23.2827 5.76192 23.3202C5.23669 23.3389 5.04911 23.3249 4.65049 23.2451C2.7043 22.8418 1.2646 21.4631 0.776878 19.5357C0.692465 19.2074 0.678396 19.001 0.678396 18.3867C0.678396 17.7255 0.692465 17.5801 0.800326 17.1815C1.03012 16.342 1.41466 15.648 1.9868 15.0383C3.14982 13.805 4.72083 13.275 6.41378 13.5377Z" fill="#2408E8"/>
<path d="M17.7195 2.86913C16.7441 3.13175 16.0172 3.84457 15.7217 4.83407C15.5904 5.27959 15.6092 5.95958 15.7686 6.42385C15.9844 7.06163 16.322 7.51653 16.8238 7.85418C18.1416 8.7452 19.872 8.40286 20.7537 7.08039C21.1288 6.51295 21.2836 5.62193 21.1242 4.94193C20.8897 3.94305 20.0878 3.12706 19.0936 2.86913C18.7372 2.77534 18.0619 2.77534 17.7195 2.86913ZM19.042 3.53505C19.9658 3.83988 20.5333 4.61835 20.5333 5.58441C20.5333 7.22577 18.7653 8.23403 17.3443 7.40866C16.8003 7.08977 16.4064 6.51295 16.3079 5.87517C16.1485 4.85283 16.8003 3.83519 17.8086 3.52567C18.1228 3.42719 18.7278 3.43188 19.042 3.53505Z" fill="#2408E8"/>
<path d="M17.9975 15.6433C16.6282 15.8543 15.6387 17.0174 15.6387 18.4102C15.6387 19.3715 16.1076 20.2251 16.9189 20.7503C17.341 21.0223 17.7115 21.1348 18.2602 21.163C19.1184 21.2052 19.789 20.9519 20.3705 20.3611C20.9614 19.7655 21.2193 19.0995 21.1771 18.2695C21.1349 17.3034 20.6612 16.5109 19.8218 16.0044C19.3013 15.6902 18.6025 15.5542 17.9975 15.6433ZM18.851 16.3186C19.4138 16.4405 19.8734 16.7501 20.1876 17.2237C20.4549 17.627 20.544 17.9694 20.5252 18.504C20.5112 18.9026 20.4877 18.9917 20.3423 19.3012C19.9719 20.0797 19.2684 20.5205 18.3962 20.5205C17.3504 20.5205 16.4922 19.7842 16.314 18.7291C16.1592 17.8334 16.6657 16.8767 17.5098 16.4828C17.9835 16.2576 18.354 16.2154 18.851 16.3186Z" fill="#2408E8"/>
<path d="M5.22269 15.6434C4.19566 15.7794 3.28588 16.5156 2.94823 17.4864C2.80754 17.8897 2.77003 18.6025 2.8732 19.0386C3.10768 20.0281 3.94712 20.8769 4.92724 21.1067C6.40916 21.4538 7.89576 20.5627 8.28031 19.0996C8.37879 18.715 8.37879 18.0444 8.27093 17.6833C7.88169 16.328 6.58736 15.4651 5.22269 15.6434ZM6.23564 16.3656C7.21108 16.6657 7.86293 17.7115 7.69411 18.7104C7.55811 19.5357 6.96253 20.2157 6.16999 20.4502C5.86047 20.544 5.33055 20.5393 5.00697 20.4455C3.45002 19.9906 2.94354 18.0397 4.0878 16.9002C4.65525 16.3327 5.46655 16.1311 6.23564 16.3656Z" fill="#2408E8"/>
</svg>
