<svg width="9" height="28" viewBox="0 0 9 28" fill="none" xmlns="http://www.w3.org/2000/svg">
<path d="M2.60074 0.0620804C2.44303 0.0912857 2.09841 0.21979 1.83556 0.342453C0.947716 0.768852 0.235104 1.69758 0.0657122 2.64384C-0.0219041 3.12865 -0.0219041 24.8925 0.0657122 25.3774C0.27015 26.5105 1.15215 27.486 2.33789 27.889C2.61827 27.9883 2.84607 28 4.20704 28C5.56802 28 5.79582 27.9883 6.07619 27.889C7.15679 27.521 7.91029 26.7734 8.27244 25.6928C8.37758 25.3832 8.38342 24.9393 8.38342 14.0106C8.38342 3.05856 8.37758 2.638 8.27244 2.32842C7.96286 1.41137 7.37875 0.727964 6.58436 0.348293C6.32152 0.21979 5.94769 0.0912857 5.76077 0.0562401C5.34021 -0.0196953 3.00962 -0.0196953 2.60074 0.0620804ZM5.33437 1.0317C5.18834 1.14268 5.01895 1.52235 4.83788 2.12398C4.72106 2.49781 4.70938 2.70225 4.68601 4.61813L4.66265 6.7034L4.81452 6.85526C4.89629 6.93704 5.02479 7.00129 5.09489 7.00129C5.3519 7.00129 6.80048 6.48144 6.91147 6.35293C6.96404 6.28284 7.01076 6.13097 7.01076 6.00831C7.01076 5.72209 7.20936 5.08541 7.36123 4.8985L7.47805 4.75247V5.92069V7.09475L6.47338 7.28751C5.91848 7.39849 5.41615 7.50947 5.35774 7.53867C5.22923 7.60292 5.01895 8.06437 4.83788 8.65432C4.72106 9.04567 4.70938 9.23259 4.68601 11.1601L4.66265 13.2454L4.81452 13.3973C4.89629 13.4791 5.02479 13.5433 5.09489 13.5433C5.3519 13.5433 6.80048 13.0235 6.91147 12.8949C6.96404 12.8249 7.01076 12.673 7.01076 12.5503C7.01076 12.2641 7.20936 11.6274 7.36123 11.4405L7.47805 11.2945V12.4627V13.6368L6.47338 13.8295C5.91848 13.9405 5.41615 14.0515 5.35774 14.0807C5.22923 14.1449 5.01895 14.6064 4.83788 15.1963C4.72106 15.5877 4.70938 15.7746 4.68601 17.7022L4.66265 19.7874L4.81452 19.9393C4.89629 20.0211 5.02479 20.0853 5.09489 20.0853C5.3519 20.0853 6.80048 19.5655 6.91147 19.437C6.96404 19.3669 7.01076 19.215 7.01076 19.0923C7.01076 18.8061 7.20936 18.1695 7.36123 17.9825L7.47805 17.8365V19.0047V20.1788L6.47338 20.3715C5.91848 20.4825 5.41615 20.5935 5.35774 20.6227C5.22923 20.687 5.01895 21.1484 4.83788 21.7384C4.72106 22.1297 4.70938 22.3166 4.68601 24.2442L4.66265 26.3294L4.81452 26.4813C4.89629 26.5631 5.02479 26.6273 5.09489 26.6273C5.3519 26.6273 6.80048 26.1075 6.91147 25.979C6.96404 25.9089 7.01076 25.757 7.01076 25.6344C7.01076 25.3423 7.2152 24.7056 7.36707 24.5246L7.48973 24.3785L7.46053 24.8692C7.40796 25.7745 6.92315 26.4872 6.08787 26.8785L5.69652 27.0654H4.20704H2.71757L2.32621 26.8785C1.78883 26.6273 1.44421 26.2886 1.19304 25.7804C1.01781 25.4299 0.976922 25.2781 0.953557 24.8692L0.924352 24.3785L1.04701 24.5246C1.19888 24.7056 1.40332 25.3423 1.40332 25.6344C1.40332 25.757 1.45005 25.9089 1.50846 25.979C1.6136 26.1075 3.06219 26.6273 3.3192 26.6273C3.38929 26.6273 3.51779 26.5631 3.59957 26.4813L3.75144 26.3294L3.72807 24.2442C3.70471 22.3166 3.69303 22.1297 3.57621 21.7384C3.40097 21.1542 3.18485 20.6928 3.06219 20.6227C2.99794 20.5877 2.4956 20.4708 1.94654 20.3657L0.936034 20.1729V19.0047V17.8365L1.05286 17.9825C1.20472 18.1695 1.40332 18.8061 1.40332 19.0923C1.40332 19.215 1.45005 19.3669 1.50846 19.437C1.6136 19.5655 3.06219 20.0853 3.3192 20.0853C3.38929 20.0853 3.51779 20.0211 3.59957 19.9393L3.75144 19.7874L3.72807 17.7022C3.70471 15.7746 3.69303 15.5877 3.57621 15.1963C3.40097 14.6122 3.18485 14.1508 3.06219 14.0807C2.99794 14.0456 2.4956 13.9288 1.94654 13.8237L0.936034 13.6309V12.4627V11.2945L1.05286 11.4405C1.20472 11.6274 1.40332 12.2641 1.40332 12.5503C1.40332 12.673 1.45005 12.8249 1.50846 12.8949C1.6136 13.0235 3.06219 13.5433 3.3192 13.5433C3.38929 13.5433 3.51779 13.4791 3.59957 13.3973L3.75144 13.2454L3.72807 11.1601C3.70471 9.23259 3.69303 9.04567 3.57621 8.65432C3.40097 8.07021 3.18485 7.60876 3.06219 7.53867C2.99794 7.50363 2.4956 7.3868 1.94654 7.28166L0.936034 7.08891V5.92069V4.75247L1.05286 4.8985C1.20472 5.08541 1.40332 5.72209 1.40332 6.00831C1.40332 6.13097 1.45005 6.28284 1.50846 6.35293C1.6136 6.48144 3.06219 7.00129 3.3192 7.00129C3.38929 7.00129 3.51779 6.93704 3.59957 6.85526L3.75144 6.7034L3.72807 4.61813C3.70471 2.70225 3.69303 2.49781 3.57621 2.12398C3.39513 1.52235 3.22574 1.14268 3.07971 1.0317C2.95705 0.932402 3.00378 0.926561 4.20704 0.926561C5.41031 0.926561 5.45703 0.932402 5.33437 1.0317ZM2.1685 1.74431L2.50145 1.80857L2.5949 2.1123C2.77014 2.69057 2.80518 3.05272 2.80518 4.46626V5.88564L2.61827 5.82139C2.33789 5.72794 2.29701 5.68121 2.25028 5.39499C2.18019 4.91018 1.79467 4.25014 1.33907 3.8179L0.918511 3.42655L0.953557 3.04688C1.01781 2.4102 1.46173 1.58661 1.71874 1.64502C1.78299 1.66254 1.98743 1.70343 2.1685 1.74431ZM6.97572 1.82025C7.22104 2.14151 7.41964 2.64384 7.46053 3.04103L7.48973 3.40902L7.02829 3.87631C6.53764 4.3728 6.29815 4.78168 6.18133 5.31906C6.1054 5.67537 6.05867 5.73378 5.80166 5.82139L5.6089 5.88564V4.46626C5.6089 3.05272 5.64395 2.69057 5.81918 2.1123L5.91264 1.80857L6.24558 1.74431C6.42665 1.70927 6.60189 1.66838 6.63109 1.6567C6.77128 1.60997 6.83553 1.63917 6.97572 1.82025ZM1.75379 8.19872C2.15098 8.28049 2.47808 8.35058 2.48392 8.36226C2.54233 8.44988 2.64747 8.80619 2.71757 9.13329C2.78182 9.43118 2.80518 9.93936 2.80518 10.9849V12.4277L2.61827 12.3634C2.33789 12.27 2.29701 12.2232 2.25028 11.937C2.18019 11.458 1.79467 10.7922 1.34491 10.3658L0.936034 9.98025V9.01647C0.936034 8.48493 0.959398 8.05269 0.988604 8.05269C1.01197 8.05269 1.36243 8.11694 1.75379 8.19872ZM7.47805 9.01063V9.96856L7.02245 10.4242C6.53764 10.9148 6.29815 11.3237 6.18133 11.8611C6.1054 12.2174 6.05867 12.2758 5.80166 12.3634L5.6089 12.4277V11.0083C5.6089 10.2256 5.63811 9.44287 5.66731 9.27348C5.75493 8.80035 5.9068 8.34474 5.98273 8.3389C6.01778 8.3389 6.33904 8.27465 6.6895 8.19872C7.04581 8.12862 7.36707 8.06437 7.40796 8.05853C7.46053 8.05269 7.47805 8.28049 7.47805 9.01063ZM1.75379 14.7407C2.15098 14.8225 2.47808 14.8926 2.48392 14.9043C2.54233 14.9919 2.64747 15.3482 2.71757 15.6753C2.78182 15.9732 2.80518 16.4814 2.80518 17.5269V18.9697L2.61827 18.9054C2.33789 18.812 2.29701 18.7652 2.25028 18.479C2.18019 18.0001 1.79467 17.3342 1.34491 16.9078L0.936034 16.5223V15.5585C0.936034 15.0269 0.959398 14.5947 0.988604 14.5947C1.01197 14.5947 1.36243 14.659 1.75379 14.7407ZM7.47805 15.5526V16.5106L7.02245 16.9662C6.53764 17.4568 6.29815 17.8657 6.18133 18.4031C6.1054 18.7594 6.05867 18.8178 5.80166 18.9054L5.6089 18.9697V17.5503C5.6089 16.7676 5.63811 15.9849 5.66731 15.8155C5.75493 15.3424 5.9068 14.8868 5.98273 14.8809C6.01778 14.8809 6.33904 14.8167 6.6895 14.7407C7.04581 14.6706 7.36707 14.6064 7.40796 14.6005C7.46053 14.5947 7.47805 14.8225 7.47805 15.5526ZM1.75379 21.2827C2.15098 21.3645 2.47808 21.4346 2.48392 21.4463C2.54233 21.5339 2.64747 21.8902 2.71757 22.2173C2.78182 22.5152 2.80518 23.0234 2.80518 24.0689V25.5117L2.61827 25.4474C2.33789 25.354 2.29701 25.3073 2.25028 25.021C2.18019 24.5421 1.79467 23.8762 1.34491 23.4498L0.936034 23.0643V22.1005C0.936034 21.569 0.959398 21.1367 0.988604 21.1367C1.01197 21.1367 1.36243 21.201 1.75379 21.2827ZM7.47805 22.0947V23.0526L7.02245 23.5082C6.53764 23.9989 6.29815 24.4077 6.18133 24.9451C6.1054 25.3014 6.05867 25.3598 5.80166 25.4474L5.6089 25.5117V24.0923C5.6089 23.3096 5.63811 22.5269 5.66731 22.3575C5.75493 21.8844 5.9068 21.4288 5.98273 21.4229C6.01778 21.4229 6.33904 21.3587 6.6895 21.2827C7.04581 21.2127 7.36707 21.1484 7.40796 21.1426C7.46053 21.1367 7.47805 21.3645 7.47805 22.0947Z" fill="#2408E8"/>
</svg>
